<svg fill="#FFFFFF" xmlns="http://www.w3.org/2000/svg"  viewBox="0 0 24 24" width="24px" height="24px"><path d="M12.005,10.99v2.32c0,0.414,0.336,0.75,0.75,0.75h4.69c-0.604,1.971-2.094,3.464-4.249,3.866 c-3.429,0.638-6.864-1.856-7.199-5.328c-0.347-3.596,2.477-6.63,6.008-6.63c1.282,0,2.471,0.404,3.449,1.088 c0.291,0.203,0.689,0.148,0.939-0.103l1.593-1.593c0.499-0.499,0.448-1.031,0.081-1.312c-2.156-1.646-5.006-2.438-8.023-1.861 c-3.986,0.763-7.174,3.99-7.882,7.986C1.042,16.498,5.881,22,12.005,22c7.941,0,10.027-7.025,9.532-11.083 c-0.046-0.379-0.365-0.665-0.748-0.665l-8.033-0.012C12.341,10.239,12.005,10.575,12.005,10.99z"/></svg>