<svg width="22" height="21" viewBox="0 0 22 21" fill="none" xmlns="http://www.w3.org/2000/svg">
<g clip-path="url(#clip0_927_6256)">
<path d="M20.1667 8.74987V4.94012C20.1609 3.98694 19.8317 3.0612 19.2286 2.30153C18.6254 1.54185 17.7807 0.98913 16.8208 0.726123C13.0064 -0.240739 8.99363 -0.240739 5.17917 0.726123C4.21934 0.98913 3.3746 1.54185 2.77143 2.30153C2.16827 3.0612 1.83914 3.98694 1.83333 4.94012V8.74987C1.3471 8.74987 0.880788 8.93425 0.536971 9.26244C0.193154 9.59063 0 10.0357 0 10.4999L0 11.3749C0 11.839 0.193154 12.2841 0.536971 12.6123C0.880788 12.9405 1.3471 13.1249 1.83333 13.1249V14.8749C1.83291 15.5541 1.99838 16.2242 2.31663 16.8317C2.63487 17.4393 3.09712 17.9676 3.66667 18.3749V18.8124C3.6661 19.3549 3.87671 19.8782 4.25763 20.2808C4.63855 20.6834 5.16259 20.9365 5.72802 20.991C6.29346 21.0455 6.85994 20.8975 7.31751 20.5758C7.77507 20.2541 8.09108 19.7815 8.20417 19.2499H13.7958C13.9089 19.7815 14.2249 20.2541 14.6825 20.5758C15.1401 20.8975 15.7065 21.0455 16.272 20.991C16.8374 20.9365 17.3615 20.6834 17.7424 20.2808C18.1233 19.8782 18.3339 19.3549 18.3333 18.8124V18.3749C18.9029 17.9676 19.3651 17.4393 19.6834 16.8317C20.0016 16.2242 20.1671 15.5541 20.1667 14.8749V13.1249C20.6529 13.1249 21.1192 12.9405 21.463 12.6123C21.8068 12.2841 22 11.839 22 11.3749V10.4999C22 10.0357 21.8068 9.59063 21.463 9.26244C21.1192 8.93425 20.6529 8.74987 20.1667 8.74987ZM11.9167 11.3749V6.12487H18.3333V11.3749H11.9167ZM3.66667 11.3749V6.12487H10.0833V11.3749H3.66667ZM5.68333 2.40787C9.16823 1.53082 12.8318 1.53082 16.3167 2.40787C16.7989 2.5351 17.2357 2.7855 17.5799 3.13211C17.9241 3.47872 18.1627 3.9084 18.2701 4.37487H3.72992C3.83726 3.9084 4.07588 3.47872 4.4201 3.13211C4.76432 2.7855 5.20108 2.5351 5.68333 2.40787ZM15.5833 17.4999H6.41667C5.68732 17.4999 4.98785 17.2233 4.47212 16.731C3.9564 16.2387 3.66667 15.5711 3.66667 14.8749V13.1249H5.5V13.9999C5.5 14.2319 5.59658 14.4545 5.76849 14.6186C5.94039 14.7827 6.17355 14.8749 6.41667 14.8749C6.65978 14.8749 6.89294 14.7827 7.06485 14.6186C7.23676 14.4545 7.33333 14.2319 7.33333 13.9999V13.1249H14.6667V13.9999C14.6667 14.2319 14.7632 14.4545 14.9352 14.6186C15.1071 14.7827 15.3402 14.8749 15.5833 14.8749C15.8264 14.8749 16.0596 14.7827 16.2315 14.6186C16.4034 14.4545 16.5 14.2319 16.5 13.9999V13.1249H18.3333V14.8749C18.3333 15.5711 18.0436 16.2387 17.5279 16.731C17.0122 17.2233 16.3127 17.4999 15.5833 17.4999Z" fill="#175078"/>
</g>
<defs>
<clipPath id="clip0_927_6256">
<rect width="22" height="21" fill="white"/>
</clipPath>
</defs>
</svg>
