<svg xmlns="http://www.w3.org/2000/svg"  viewBox="0 0 24 24" width="24px" height="24px" baseProfile="basic"><path fill="#306263" d="M11.665,2.005c-5.046,0.165-9.291,4.246-9.64,9.283c-0.344,4.966,2.943,9.214,7.47,10.383	c0.51,0.132,1.01-0.252,1.01-0.779V15.45c0-0.442-0.358-0.8-0.8-0.8H8.831c-0.442,0-0.8-0.358-0.8-0.8v-1.028	c0-0.442,0.358-0.8,0.8-0.8h0.874c0.442,0,0.8-0.358,0.8-0.8v-0.949c0-2.896,1.411-4.167,3.818-4.167c0.559,0,0.991,0.02,1.32,0.045	c0.416,0.032,0.731,0.38,0.731,0.798v0.775c0,0.442-0.358,0.8-0.8,0.8h-0.842c-1.022,0-1.378,0.969-1.378,2.061v0.637	c0,0.442,0.358,0.8,0.8,0.8h1.261c0.49,0,0.865,0.437,0.791,0.922l-0.159,1.028c-0.06,0.39-0.396,0.678-0.791,0.678h-1.102	c-0.442,0-0.8,0.358-0.8,0.8v5.479c0,0.524,0.496,0.903,1.006,0.78C18.742,20.648,22,16.709,22,12C22,6.366,17.34,1.82,11.665,2.005	z"/></svg>