<?xml version="1.0" standalone="no"?>
<!DOCTYPE svg PUBLIC "-//W3C//DTD SVG 20010904//EN"
 "http://www.w3.org/TR/2001/REC-SVG-20010904/DTD/svg10.dtd">
<svg version="1.0" xmlns="http://www.w3.org/2000/svg"
 width="512.000000pt" height="512.000000pt" viewBox="0 0 512.000000 512.000000"
 preserveAspectRatio="xMidYMid meet">

<g transform="translate(0.000000,512.000000) scale(0.100000,-0.100000)"
fill="#000000" stroke="none">
<path d="M2420 5114 c-560 -72 -997 -473 -1116 -1024 -26 -119 -26 -381 0
-500 36 -168 104 -328 199 -470 64 -96 241 -273 337 -337 544 -364 1253 -272
1683 217 145 165 245 367 293 590 26 119 26 381 0 500 -109 505 -485 887 -986
1001 -83 19 -331 33 -410 23z m400 -462 c132 -44 237 -108 335 -206 173 -173
255 -366 255 -606 0 -237 -82 -433 -249 -601 -168 -167 -364 -249 -601 -249
-237 0 -433 82 -601 249 -167 168 -249 364 -249 601 0 237 82 433 249 601 91
90 179 149 286 190 129 50 184 59 340 55 124 -3 151 -7 235 -34z"/>
<path d="M2290 2114 c-401 -58 -768 -238 -1058 -518 -332 -320 -531 -728 -581
-1188 -23 -206 -11 -278 54 -344 97 -97 262 -77 331 41 23 40 27 61 35 183 24
388 168 712 434 977 360 361 860 512 1360 410 437 -89 826 -389 1030 -795 92
-183 140 -369 154 -592 8 -122 12 -143 35 -183 69 -118 233 -139 330 -42 66
67 78 138 55 345 -47 437 -227 823 -529 1136 -304 315 -686 510 -1119 570
-137 19 -398 19 -531 0z"/>
</g>
</svg>
